<mxfile host="app.diagrams.net" modified="2021-04-30T07:02:51.290Z" agent="5.0 (Macintosh; Intel Mac OS X 10_13_4) AppleWebKit/537.36 (KHTML, like Gecko) Chrome/89.0.4389.114 Safari/537.36" etag="jBeNWOt4pq7fz9KEWbyT" version="14.6.9" type="github">
  <diagram id="-P7QtgBGvjzrSgk4U8nz" name="Page-1">
    <mxGraphModel dx="946" dy="533" grid="1" gridSize="10" guides="1" tooltips="1" connect="1" arrows="1" fold="1" page="1" pageScale="1" pageWidth="827" pageHeight="1169" math="0" shadow="0">
      <root>
        <mxCell id="0" />
        <mxCell id="1" parent="0" />
        <mxCell id="s4y3Hh_v_y5VhP98MSq1-16" value="" style="html=1;shadow=0;dashed=0;shape=mxgraph.basic.arc;startAngle=0.25;endAngle=1;strokeWidth=4;strokeColor=#0085FC;rounded=0;sketch=0;" vertex="1" parent="1">
          <mxGeometry x="399" y="330" width="30" height="30" as="geometry" />
        </mxCell>
        <mxCell id="s4y3Hh_v_y5VhP98MSq1-17" value="" style="html=1;shadow=0;dashed=0;shape=mxgraph.basic.arc;startAngle=0.25;endAngle=1;strokeWidth=4;strokeColor=#FFBC26;rounded=0;sketch=0;" vertex="1" parent="1">
          <mxGeometry x="280" y="330" width="30" height="30" as="geometry" />
        </mxCell>
        <mxCell id="s4y3Hh_v_y5VhP98MSq1-18" value="" style="html=1;shadow=0;dashed=0;shape=mxgraph.basic.arc;startAngle=0.25;endAngle=1;strokeWidth=4;strokeColor=#DB2843;rounded=0;sketch=0;" vertex="1" parent="1">
          <mxGeometry x="160" y="280" width="30" height="30" as="geometry" />
        </mxCell>
      </root>
    </mxGraphModel>
  </diagram>
</mxfile>
